<?xml version="1.0" standalone="no"?>
<!DOCTYPE svg PUBLIC "-//W3C//DTD SVG 20010904//EN"
 "http://www.w3.org/TR/2001/REC-SVG-20010904/DTD/svg10.dtd">
<svg version="1.0" xmlns="http://www.w3.org/2000/svg"
 width="832.000000pt" height="944.000000pt" viewBox="0 0 832.000000 944.000000"
 preserveAspectRatio="xMidYMid meet">
<metadata>
Created by potrace 1.16, written by Peter Selinger 2001-2019
</metadata>
<g transform="translate(0.000000,944.000000) scale(0.100000,-0.100000)"
fill="#f4efe5" stroke="none">
<path d="M1348 8643 c-32 -36 -30 -60 6 -142 40 -87 41 -90 25 -124 -15 -33
-53 -49 -98 -41 -49 9 -81 26 -135 73 -79 69 -163 78 -206 23 -39 -48 -12
-103 87 -181 84 -66 117 -159 76 -210 -20 -24 -94 -45 -125 -35 -41 13 -121
-7 -151 -38 -26 -26 -29 -34 -24 -74 8 -75 34 -92 182 -118 84 -14 210 -69
253 -109 13 -12 40 -53 59 -92 46 -92 117 -178 289 -355 79 -81 152 -165 164
-189 12 -24 28 -85 36 -135 12 -79 25 -113 93 -251 45 -93 96 -181 120 -209
23 -27 59 -83 81 -125 41 -83 88 -132 154 -162 65 -29 91 -25 144 25 26 24 67
52 92 62 74 28 106 59 192 186 57 85 95 130 127 152 89 61 101 78 101 143 0
81 -23 119 -102 168 -36 22 -81 59 -101 81 -27 30 -61 52 -125 79 -48 21 -107
51 -131 68 -24 17 -79 45 -122 63 -152 64 -172 82 -231 199 -23 44 -58 104
-79 134 -21 29 -55 97 -76 150 -29 76 -47 107 -89 151 -29 30 -78 100 -111
155 l-58 100 -1 105 c-2 115 -35 263 -80 351 -50 100 -191 173 -236 122z"/>
<path d="M3263 8444 c-51 -26 -67 -72 -66 -192 3 -195 36 -248 185 -297 90
-30 232 -96 259 -121 26 -24 56 -102 75 -195 21 -107 11 -151 -46 -203 -48
-43 -86 -47 -126 -12 -23 19 -29 34 -35 92 -6 62 -10 71 -44 102 -36 33 -40
34 -101 29 -63 -5 -155 -41 -161 -63 -2 -6 21 -23 51 -38 104 -51 121 -104 58
-177 -22 -24 -44 -54 -50 -66 -28 -52 -5 -125 48 -157 46 -26 111 -20 208 20
84 35 89 36 172 29 69 -5 103 -3 174 14 48 12 100 21 115 21 44 0 128 29 158
54 15 13 69 44 119 69 72 36 104 59 149 109 31 35 69 86 83 113 l27 50 0 270
c-1 245 -3 278 -23 360 -27 110 -56 162 -102 187 -31 17 -50 19 -160 15 -117
-5 -233 -26 -254 -47 -5 -5 6 -26 28 -50 43 -48 56 -77 56 -129 0 -75 -76
-125 -146 -96 -47 19 -64 60 -64 149 0 102 -11 110 -142 101 -102 -8 -135 -2
-260 46 -86 32 -138 36 -185 13z"/>
<path d="M4723 8440 c-45 -27 -80 -84 -97 -160 -21 -87 -20 -129 4 -167 25
-41 59 -63 110 -70 38 -5 44 -2 94 45 63 60 112 76 208 70 47 -4 79 -13 111
-31 72 -42 157 -167 157 -230 0 -37 -37 -137 -64 -172 -14 -17 -44 -39 -69
-49 -30 -11 -54 -30 -76 -60 -38 -55 -57 -61 -235 -81 -77 -9 -153 -23 -170
-32 -33 -17 -125 -96 -239 -206 -52 -50 -93 -80 -154 -108 -94 -45 -105 -59
-127 -166 -29 -136 -55 -201 -89 -227 -50 -38 -130 -75 -232 -107 -145 -45
-172 -48 -313 -33 -165 17 -204 17 -249 -1 -48 -19 -68 -48 -53 -75 11 -21 60
-50 84 -50 63 0 192 -81 249 -157 35 -48 35 -86 -3 -143 -53 -79 -40 -95 86
-106 145 -12 182 -42 224 -183 25 -84 74 -146 140 -176 62 -28 88 -15 127 65
53 109 104 134 174 87 40 -27 68 -91 69 -157 1 -95 37 -162 104 -194 47 -22
76 -10 152 65 50 50 66 60 90 57 69 -8 94 -119 54 -246 -23 -73 -19 -104 17
-132 38 -30 96 -26 160 10 85 48 120 38 130 -37 7 -52 -11 -112 -47 -159 -16
-21 -44 -57 -61 -79 -29 -37 -31 -45 -27 -107 4 -83 23 -108 81 -108 35 0 45
7 99 62 83 87 111 130 143 227 15 46 40 97 55 114 25 29 33 31 115 36 103 7
114 16 145 119 28 93 49 124 112 159 71 40 83 57 83 112 -1 58 -24 106 -93
190 -92 111 -127 217 -103 307 16 60 48 84 124 94 64 8 105 23 119 44 16 23 7
73 -22 126 -17 30 -42 80 -56 110 -34 74 -58 97 -132 131 -73 33 -90 61 -73
120 15 51 86 129 117 129 16 0 47 -21 89 -60 76 -71 109 -79 150 -39 18 18 20
31 18 141 -1 68 -10 156 -19 199 -27 126 -4 180 101 237 76 41 71 73 -20 127
-24 13 -60 44 -82 67 -21 24 -59 59 -84 78 -25 18 -61 54 -80 79 -19 25 -52
65 -73 89 -56 61 -55 95 7 160 48 52 63 87 53 125 -8 34 -39 47 -137 56 -111
10 -131 25 -159 122 -32 105 -79 139 -200 139 -30 0 -100 7 -155 15 -55 8
-152 14 -215 15 -97 0 -120 -3 -147 -20z m793 -966 c19 -9 49 -37 68 -63 19
-25 53 -64 76 -86 23 -22 49 -53 57 -69 32 -62 12 -170 -37 -196 -15 -8 -34
-5 -77 10 -84 30 -116 27 -162 -16 -22 -19 -47 -55 -57 -80 l-17 -45 38 -80
37 -80 -16 -42 c-9 -24 -16 -48 -16 -55 0 -7 25 -24 55 -38 62 -27 75 -48 75
-120 0 -56 -23 -102 -55 -110 -65 -16 -197 26 -314 100 -63 40 -71 50 -71 93
0 62 13 74 108 99 76 20 99 43 108 110 8 69 -6 105 -62 150 -53 44 -70 89 -54
139 14 44 38 60 121 85 107 32 130 72 99 171 -23 73 -25 110 -8 127 17 17 64
15 104 -4z m-726 -459 c15 -16 24 -40 27 -72 7 -75 -13 -375 -27 -405 -13 -27
-43 -46 -112 -67 -55 -18 -84 -45 -128 -122 -47 -79 -78 -104 -131 -104 -49 0
-74 24 -101 97 -33 92 -50 108 -113 108 -58 0 -66 -6 -84 -63 -16 -48 -46 -66
-61 -37 -15 28 -4 59 35 95 30 28 32 35 39 124 11 148 41 194 110 171 46 -15
72 -46 96 -115 26 -77 44 -95 91 -95 51 0 86 17 108 54 10 17 33 99 51 181 38
176 53 221 82 252 30 32 87 31 118 -2z m145 -607 c14 -6 35 -28 47 -47 12 -20
55 -71 96 -113 91 -97 125 -165 126 -256 1 -58 -2 -66 -27 -88 -15 -13 -38
-24 -50 -24 -76 0 -157 55 -178 118 -6 20 -31 74 -55 119 -39 71 -44 89 -44
145 0 76 15 134 38 147 21 13 17 13 47 -1z"/>
<path d="M4945 7996 c-5 -3 -22 -7 -38 -10 -60 -14 -84 -74 -53 -134 19 -36
93 -106 133 -126 42 -21 86 -20 106 2 23 25 50 138 43 177 -10 52 -53 81 -132
89 -27 3 -53 4 -59 2z"/>
<path d="M2537 7698 c-11 -33 44 -111 64 -91 15 15 4 58 -21 83 -23 23 -36 25
-43 8z"/>
<path d="M7030 6491 c-97 -31 -161 -102 -162 -182 -1 -62 15 -73 92 -65 182
19 178 19 243 -4 107 -39 119 -52 167 -196 35 -106 43 -144 47 -228 4 -90 1
-119 -31 -265 -20 -90 -43 -178 -50 -195 -19 -46 -177 -234 -315 -374 -126
-129 -157 -177 -181 -281 -17 -74 -16 -147 3 -207 9 -27 26 -103 37 -169 20
-116 33 -153 93 -256 36 -62 55 -196 38 -265 -15 -58 -29 -78 -127 -182 -64
-68 -85 -85 -127 -97 -102 -30 -342 -8 -485 44 -100 37 -181 42 -211 12 -27
-27 -35 -79 -21 -132 18 -68 54 -99 134 -113 22 -4 79 -21 127 -37 48 -16 98
-29 110 -29 13 0 58 -9 99 -20 169 -44 250 -36 354 34 33 23 82 54 107 69 37
21 62 50 122 141 104 157 111 181 104 364 -6 173 -13 201 -73 288 -25 36 -50
78 -55 93 -27 69 -79 254 -79 280 0 38 54 185 84 231 13 19 84 96 157 172 276
281 307 325 371 511 28 82 32 107 36 235 5 161 -3 204 -53 303 -18 36 -43 99
-55 140 -19 65 -29 81 -79 129 -32 30 -68 72 -80 92 -29 48 -55 66 -167 117
-101 45 -137 54 -174 42z"/>
<path d="M3164 6405 c-27 -14 -65 -28 -84 -31 -46 -9 -69 -20 -105 -55 -28
-26 -57 -41 -185 -95 -25 -10 -72 -41 -105 -67 -78 -63 -120 -84 -205 -103
-53 -12 -77 -24 -98 -46 -38 -41 -80 -65 -161 -93 -65 -22 -80 -33 -164 -118
-52 -51 -108 -113 -125 -138 -42 -59 -179 -192 -220 -213 -24 -13 -58 -17
-130 -17 -108 0 -301 24 -335 42 -12 7 -47 35 -77 64 -40 38 -72 57 -119 73
-43 15 -79 36 -112 67 -50 47 -67 53 -87 33 -22 -22 -13 -56 22 -83 34 -26 59
-74 51 -98 -2 -7 -6 -24 -9 -39 -4 -15 -26 -50 -51 -78 -25 -28 -45 -54 -45
-59 0 -13 43 -47 99 -77 76 -41 86 -60 83 -160 -5 -135 7 -141 306 -170 284
-28 379 -11 476 81 35 33 71 58 95 65 20 5 100 10 177 9 189 0 257 20 353 105
27 24 77 59 111 77 33 18 91 61 127 96 86 82 142 99 237 71 29 -9 61 -32 107
-79 61 -61 71 -67 120 -74 93 -12 221 -43 294 -71 68 -26 72 -26 165 -14 52 6
133 18 180 27 47 8 138 23 203 34 167 27 178 34 201 140 5 22 11 26 42 27 77
3 139 54 150 124 13 74 -78 108 -136 50 -26 -26 -36 -59 -52 -157 -4 -25 -44
-23 -104 6 -77 36 -224 229 -224 294 0 29 -55 75 -112 95 -82 28 -135 26 -202
-10 -63 -33 -92 -30 -113 11 -19 37 -15 77 17 169 16 47 30 96 30 109 0 13
-18 47 -39 75 -22 28 -54 82 -72 119 -34 72 -68 107 -104 107 -12 0 -44 -11
-71 -25z"/>
<path d="M6754 6146 c-17 -8 -64 -44 -103 -82 -79 -74 -136 -173 -166 -289
-19 -76 -19 -174 0 -200 37 -48 183 3 237 83 17 26 59 76 93 112 66 70 135
183 135 222 0 30 -50 108 -92 143 -33 28 -58 31 -104 11z"/>
<path d="M2819 5254 c-58 -17 -105 -67 -149 -157 l-32 -66 31 -66 c17 -35 39
-97 48 -137 18 -82 33 -117 73 -168 16 -20 47 -76 69 -125 24 -50 63 -114 90
-145 27 -31 63 -78 80 -105 41 -64 204 -233 266 -275 28 -18 75 -56 105 -85
30 -28 82 -69 115 -90 33 -21 87 -61 120 -90 33 -28 76 -62 95 -75 19 -13 60
-47 90 -76 30 -29 74 -62 98 -75 24 -12 60 -41 80 -65 20 -24 63 -62 97 -83
33 -22 75 -57 92 -79 18 -22 59 -56 90 -75 33 -21 74 -57 95 -86 38 -51 98
-97 156 -120 25 -11 38 -11 62 -1 29 12 158 162 199 231 26 45 57 181 71 318
10 98 13 108 55 175 25 39 52 93 61 121 24 81 29 218 10 309 -11 54 -16 130
-16 245 0 216 -22 312 -86 381 -12 14 -41 61 -63 106 -51 104 -80 129 -163
138 -34 4 -68 12 -75 18 -8 6 -13 34 -13 70 0 113 -40 148 -168 148 -110 0
-163 -18 -226 -78 -55 -52 -83 -64 -186 -82 -36 -6 -108 -23 -160 -37 -114
-31 -203 -28 -321 11 -53 17 -110 27 -190 31 -151 9 -210 26 -252 72 -79 88
-71 83 -139 82 -35 0 -84 -7 -109 -15z m326 -551 c24 -23 33 -54 41 -128 6
-58 5 -65 -11 -65 -9 0 -34 17 -55 38 -29 28 -40 49 -45 84 -11 75 27 114 70
71z m145 -241 c14 -11 39 -43 55 -72 23 -40 42 -60 80 -80 33 -18 60 -42 80
-73 21 -33 44 -53 75 -67 83 -37 93 -45 125 -90 26 -37 44 -50 101 -73 78 -31
114 -65 114 -106 0 -42 -22 -55 -77 -47 -60 8 -101 32 -138 82 -20 27 -54 53
-103 78 -49 26 -82 51 -103 80 -16 22 -53 59 -82 80 -60 45 -163 160 -190 211
-11 19 -21 53 -24 75 l-6 39 34 -9 c19 -6 45 -18 59 -28z"/>
<path d="M3085 3785 c-28 -7 -81 -25 -120 -39 -38 -15 -105 -36 -149 -47 -43
-11 -96 -29 -116 -39 -51 -26 -227 -221 -256 -284 -33 -74 -48 -182 -40 -311
7 -138 24 -203 81 -313 25 -48 57 -130 71 -182 14 -52 44 -153 67 -223 40
-127 40 -128 29 -204 -19 -123 -92 -237 -201 -317 -57 -42 -98 -53 -141 -38
-36 13 -131 94 -245 208 -86 87 -121 106 -274 145 -83 21 -138 17 -177 -14
-84 -66 -32 -133 154 -198 89 -30 95 -35 155 -103 141 -159 142 -182 9 -227
-33 -11 -66 -27 -72 -34 -20 -24 -7 -68 27 -91 36 -24 242 -84 288 -84 42 0
199 46 254 75 25 13 70 44 100 69 30 25 66 50 80 55 14 5 80 31 145 56 104 41
133 48 230 55 127 10 151 17 187 56 45 49 51 73 60 213 4 75 13 153 19 175 21
72 128 281 166 324 45 53 277 209 337 227 23 7 112 20 197 29 126 14 170 15
235 6 170 -23 204 -24 224 -6 23 21 33 58 23 84 -14 39 -147 175 -208 213 -34
22 -74 57 -89 79 -15 22 -51 54 -79 71 -28 17 -81 60 -118 95 -36 35 -71 64
-77 64 -6 0 -46 33 -89 73 -42 40 -99 86 -127 101 -27 16 -77 54 -110 86 -33
31 -88 74 -122 94 -35 21 -68 45 -75 55 -7 10 -29 28 -48 40 -41 25 -126 27
-205 6z"/>
<path d="M5102 3750 c-41 -41 -58 -102 -72 -250 -13 -144 -29 -215 -72 -318
-25 -61 -39 -79 -87 -116 -42 -32 -72 -70 -120 -147 -76 -122 -86 -169 -53
-259 69 -189 99 -261 127 -305 54 -82 240 -258 323 -305 40 -22 93 -56 118
-75 52 -40 84 -50 219 -71 199 -30 270 -46 384 -91 153 -59 183 -77 215 -126
35 -55 60 -140 52 -182 -12 -64 -75 -174 -114 -200 -91 -60 -260 -73 -502 -41
-201 28 -289 19 -342 -34 -29 -30 -37 -75 -18 -110 13 -23 61 -40 119 -40 58
0 93 -18 105 -52 8 -22 1 -41 -49 -127 -67 -119 -80 -176 -46 -210 38 -38 99
-19 144 46 37 53 70 70 155 78 l73 8 68 -72 c83 -87 106 -92 160 -30 128 146
199 212 264 246 37 20 77 49 88 65 12 16 46 47 76 69 30 23 69 61 86 86 18 25
55 75 83 110 64 81 89 157 89 268 0 102 -22 146 -103 209 -33 24 -66 56 -75
70 -10 14 -44 44 -77 66 -66 45 -96 85 -128 173 -29 77 -28 105 12 222 36 107
86 340 86 403 0 60 -36 217 -63 274 -14 29 -51 84 -83 122 -33 38 -81 103
-109 145 -65 100 -218 224 -352 288 -51 23 -115 56 -141 73 -27 16 -77 37
-113 46 -79 20 -102 32 -164 83 -65 53 -118 57 -163 11z m-33 -907 c6 -21 15
-72 21 -113 6 -41 20 -93 31 -116 19 -40 103 -126 223 -229 55 -47 59 -53 63
-101 5 -47 3 -54 -20 -68 -23 -16 -29 -16 -83 3 -77 28 -124 60 -170 118 -21
26 -59 71 -85 100 -53 59 -78 132 -86 253 -6 81 -1 97 45 158 32 42 49 41 61
-5z"/>
</g>
</svg>
