<?xml version="1.0" standalone="no"?>
<!DOCTYPE svg PUBLIC "-//W3C//DTD SVG 20010904//EN"
 "http://www.w3.org/TR/2001/REC-SVG-20010904/DTD/svg10.dtd">
<svg version="1.0" xmlns="http://www.w3.org/2000/svg"
 width="2688.000000pt" height="944.000000pt" viewBox="0 0 2688.000000 944.000000"
 preserveAspectRatio="xMidYMid meet">
<metadata>
Created by potrace 1.16, written by Peter Selinger 2001-2019
</metadata>
<g transform="translate(0.000000,944.000000) scale(0.100000,-0.100000)"
fill="#f4efe5" stroke="none">
<path d="M9981 8694 c-54 -38 -51 231 -52 -4001 -1 -2155 -1 -3943 0 -3973 2
-65 27 -120 60 -137 35 -17 80 4 103 48 18 35 18 170 18 4007 0 4297 4 4017
-51 4056 -13 9 -30 16 -39 16 -9 0 -26 -7 -39 -16z"/>
<path d="M1348 8643 c-32 -36 -30 -60 6 -142 40 -87 41 -90 25 -124 -15 -33
-53 -49 -98 -41 -49 9 -81 26 -135 73 -79 69 -163 78 -206 23 -39 -48 -12
-103 87 -181 84 -66 117 -159 76 -210 -20 -24 -94 -45 -125 -35 -41 13 -121
-7 -151 -38 -26 -26 -29 -34 -24 -74 8 -75 34 -92 182 -118 84 -14 210 -69
253 -109 13 -12 40 -53 59 -92 46 -92 117 -178 289 -355 79 -81 152 -165 164
-189 12 -24 28 -85 36 -135 12 -79 25 -113 93 -251 45 -93 96 -181 120 -209
23 -27 59 -83 81 -125 41 -83 88 -132 154 -162 65 -29 91 -25 144 25 26 24 67
52 92 62 74 28 106 59 192 186 57 85 95 130 127 152 89 61 101 78 101 143 0
81 -23 119 -102 168 -36 22 -81 59 -101 81 -27 30 -61 52 -125 79 -48 21 -107
51 -131 68 -24 17 -79 45 -122 63 -152 64 -172 82 -231 199 -23 44 -58 104
-79 134 -21 29 -55 97 -76 150 -29 76 -47 107 -89 151 -29 30 -78 100 -111
155 l-58 100 -1 105 c-2 115 -35 263 -80 351 -50 100 -191 173 -236 122z"/>
<path d="M12700 8633 c-8 -3 -25 -15 -37 -26 -36 -33 -31 -82 18 -157 l41 -64
3 -600 c2 -331 4 -614 5 -631 1 -16 -13 -66 -31 -110 -20 -49 -34 -104 -37
-141 -4 -54 -1 -64 19 -83 12 -11 34 -21 48 -22 117 -4 423 0 442 6 60 19 63
71 12 198 l-38 92 5 215 c6 269 6 366 0 765 l-5 321 48 63 c33 44 47 72 47 94
0 42 -9 53 -53 72 -29 12 -79 15 -254 14 -120 0 -225 -3 -233 -6z"/>
<path d="M13854 8621 c-67 -31 -68 -69 -1 -154 54 -69 55 -79 46 -477 -5 -214
-4 -469 1 -617 l10 -253 -41 -112 c-44 -126 -46 -162 -9 -189 22 -16 51 -19
246 -20 194 -2 225 0 248 14 48 32 47 91 -6 244 l-32 92 13 105 c7 58 10 109
7 114 -3 5 -6 235 -6 511 l-2 503 37 59 c41 67 53 116 35 148 -23 44 -64 51
-292 51 -186 0 -218 -3 -254 -19z"/>
<path d="M15820 8496 c-50 -28 -97 -112 -135 -241 -43 -151 -35 -200 60 -340
37 -54 66 -114 90 -184 20 -57 57 -145 82 -194 24 -50 62 -135 83 -189 22 -55
55 -122 76 -150 52 -73 63 -106 74 -218 11 -113 26 -152 68 -169 19 -8 101
-13 234 -14 237 -2 243 0 235 68 -9 79 -46 152 -112 225 -55 59 -67 80 -85
142 -35 121 -49 154 -96 225 -27 41 -55 102 -71 153 -28 94 -51 143 -95 207
-16 23 -47 95 -69 159 -22 64 -53 135 -68 158 -48 69 -70 122 -91 211 -23 98
-42 140 -69 155 -27 14 -81 12 -111 -4z"/>
<path d="M3263 8444 c-51 -26 -67 -72 -66 -192 3 -195 36 -248 185 -297 90
-30 232 -96 259 -121 26 -24 56 -102 75 -195 21 -107 11 -151 -46 -203 -48
-43 -86 -47 -126 -12 -23 19 -29 34 -35 92 -6 62 -10 71 -44 102 -36 33 -40
34 -101 29 -63 -5 -155 -41 -161 -63 -2 -6 21 -23 51 -38 104 -51 121 -104 58
-177 -22 -24 -44 -54 -50 -66 -28 -52 -5 -125 48 -157 46 -26 111 -20 208 20
84 35 89 36 172 29 69 -5 103 -3 174 14 48 12 100 21 115 21 44 0 128 29 158
54 15 13 69 44 119 69 72 36 104 59 149 109 31 35 69 86 83 113 l27 50 0 270
c-1 245 -3 278 -23 360 -27 110 -56 162 -102 187 -31 17 -50 19 -160 15 -117
-5 -233 -26 -254 -47 -5 -5 6 -26 28 -50 43 -48 56 -77 56 -129 0 -75 -76
-125 -146 -96 -47 19 -64 60 -64 149 0 102 -11 110 -142 101 -102 -8 -135 -2
-260 46 -86 32 -138 36 -185 13z"/>
<path d="M4723 8440 c-45 -27 -80 -84 -97 -160 -21 -87 -20 -129 4 -167 25
-41 59 -63 110 -70 38 -5 44 -2 94 45 63 60 112 76 208 70 47 -4 79 -13 111
-31 72 -42 157 -167 157 -230 0 -37 -37 -137 -64 -172 -14 -17 -44 -39 -69
-49 -30 -11 -54 -30 -76 -60 -38 -55 -57 -61 -235 -81 -77 -9 -153 -23 -170
-32 -33 -17 -125 -96 -239 -206 -52 -50 -93 -80 -154 -108 -94 -45 -105 -59
-127 -166 -29 -136 -55 -201 -89 -227 -50 -38 -130 -75 -232 -107 -145 -45
-172 -48 -313 -33 -165 17 -204 17 -249 -1 -48 -19 -68 -48 -53 -75 11 -21 60
-50 84 -50 63 0 192 -81 249 -157 35 -48 35 -86 -3 -143 -53 -79 -40 -95 86
-106 145 -12 182 -42 224 -183 25 -84 74 -146 140 -176 62 -28 88 -15 127 65
53 109 104 134 174 87 40 -27 68 -91 69 -157 1 -95 37 -162 104 -194 47 -22
76 -10 152 65 50 50 66 60 90 57 69 -8 94 -119 54 -246 -23 -73 -19 -104 17
-132 38 -30 96 -26 160 10 85 48 120 38 130 -37 7 -52 -11 -112 -47 -159 -16
-21 -44 -57 -61 -79 -29 -37 -31 -45 -27 -107 4 -83 23 -108 81 -108 35 0 45
7 99 62 83 87 111 130 143 227 15 46 40 97 55 114 25 29 33 31 115 36 103 7
114 16 145 119 28 93 49 124 112 159 71 40 83 57 83 112 -1 58 -24 106 -93
190 -92 111 -127 217 -103 307 16 60 48 84 124 94 64 8 105 23 119 44 16 23 7
73 -22 126 -17 30 -42 80 -56 110 -34 74 -58 97 -132 131 -73 33 -90 61 -73
120 15 51 86 129 117 129 16 0 47 -21 89 -60 76 -71 109 -79 150 -39 18 18 20
31 18 141 -1 68 -10 156 -19 199 -27 126 -4 180 101 237 76 41 71 73 -20 127
-24 13 -60 44 -82 67 -21 24 -59 59 -84 78 -25 18 -61 54 -80 79 -19 25 -52
65 -73 89 -56 61 -55 95 7 160 48 52 63 87 53 125 -8 34 -39 47 -137 56 -111
10 -131 25 -159 122 -32 105 -79 139 -200 139 -30 0 -100 7 -155 15 -55 8
-152 14 -215 15 -97 0 -120 -3 -147 -20z m793 -966 c19 -9 49 -37 68 -63 19
-25 53 -64 76 -86 23 -22 49 -53 57 -69 32 -62 12 -170 -37 -196 -15 -8 -34
-5 -77 10 -84 30 -116 27 -162 -16 -22 -19 -47 -55 -57 -80 l-17 -45 38 -80
37 -80 -16 -42 c-9 -24 -16 -48 -16 -55 0 -7 25 -24 55 -38 62 -27 75 -48 75
-120 0 -56 -23 -102 -55 -110 -65 -16 -197 26 -314 100 -63 40 -71 50 -71 93
0 62 13 74 108 99 76 20 99 43 108 110 8 69 -6 105 -62 150 -53 44 -70 89 -54
139 14 44 38 60 121 85 107 32 130 72 99 171 -23 73 -25 110 -8 127 17 17 64
15 104 -4z m-726 -459 c15 -16 24 -40 27 -72 7 -75 -13 -375 -27 -405 -13 -27
-43 -46 -112 -67 -55 -18 -84 -45 -128 -122 -47 -79 -78 -104 -131 -104 -49 0
-74 24 -101 97 -33 92 -50 108 -113 108 -58 0 -66 -6 -84 -63 -16 -48 -46 -66
-61 -37 -15 28 -4 59 35 95 30 28 32 35 39 124 11 148 41 194 110 171 46 -15
72 -46 96 -115 26 -77 44 -95 91 -95 51 0 86 17 108 54 10 17 33 99 51 181 38
176 53 221 82 252 30 32 87 31 118 -2z m145 -607 c14 -6 35 -28 47 -47 12 -20
55 -71 96 -113 91 -97 125 -165 126 -256 1 -58 -2 -66 -27 -88 -15 -13 -38
-24 -50 -24 -76 0 -157 55 -178 118 -6 20 -31 74 -55 119 -39 71 -44 89 -44
145 0 76 15 134 38 147 21 13 17 13 47 -1z"/>
<path d="M4945 7996 c-5 -3 -22 -7 -38 -10 -60 -14 -84 -74 -53 -134 19 -36
93 -106 133 -126 42 -21 86 -20 106 2 23 25 50 138 43 177 -10 52 -53 81 -132
89 -27 3 -53 4 -59 2z"/>
<path d="M2537 7698 c-11 -33 44 -111 64 -91 15 15 4 58 -21 83 -23 23 -36 25
-43 8z"/>
<path d="M15054 6995 c-51 -51 -82 -157 -55 -189 31 -37 118 -27 160 18 24 26
37 89 27 131 -16 65 -86 86 -132 40z"/>
<path d="M7030 6491 c-97 -31 -161 -102 -162 -182 -1 -62 15 -73 92 -65 182
19 178 19 243 -4 107 -39 119 -52 167 -196 35 -106 43 -144 47 -228 4 -90 1
-119 -31 -265 -20 -90 -43 -178 -50 -195 -19 -46 -177 -234 -315 -374 -126
-129 -157 -177 -181 -281 -17 -74 -16 -147 3 -207 9 -27 26 -103 37 -169 20
-116 33 -153 93 -256 36 -62 55 -196 38 -265 -15 -58 -29 -78 -127 -182 -64
-68 -85 -85 -127 -97 -102 -30 -342 -8 -485 44 -100 37 -181 42 -211 12 -27
-27 -35 -79 -21 -132 18 -68 54 -99 134 -113 22 -4 79 -21 127 -37 48 -16 98
-29 110 -29 13 0 58 -9 99 -20 169 -44 250 -36 354 34 33 23 82 54 107 69 37
21 62 50 122 141 104 157 111 181 104 364 -6 173 -13 201 -73 288 -25 36 -50
78 -55 93 -27 69 -79 254 -79 280 0 38 54 185 84 231 13 19 84 96 157 172 276
281 307 325 371 511 28 82 32 107 36 235 5 161 -3 204 -53 303 -18 36 -43 99
-55 140 -19 65 -29 81 -79 129 -32 30 -68 72 -80 92 -29 48 -55 66 -167 117
-101 45 -137 54 -174 42z"/>
<path d="M3164 6405 c-27 -14 -65 -28 -84 -31 -46 -9 -69 -20 -105 -55 -28
-26 -57 -41 -185 -95 -25 -10 -72 -41 -105 -67 -78 -63 -120 -84 -205 -103
-53 -12 -77 -24 -98 -46 -38 -41 -80 -65 -161 -93 -65 -22 -80 -33 -164 -118
-52 -51 -108 -113 -125 -138 -42 -59 -179 -192 -220 -213 -24 -13 -58 -17
-130 -17 -108 0 -301 24 -335 42 -12 7 -47 35 -77 64 -40 38 -72 57 -119 73
-43 15 -79 36 -112 67 -50 47 -67 53 -87 33 -22 -22 -13 -56 22 -83 34 -26 59
-74 51 -98 -2 -7 -6 -24 -9 -39 -4 -15 -26 -50 -51 -78 -25 -28 -45 -54 -45
-59 0 -13 43 -47 99 -77 76 -41 86 -60 83 -160 -5 -135 7 -141 306 -170 284
-28 379 -11 476 81 35 33 71 58 95 65 20 5 100 10 177 9 189 0 257 20 353 105
27 24 77 59 111 77 33 18 91 61 127 96 86 82 142 99 237 71 29 -9 61 -32 107
-79 61 -61 71 -67 120 -74 93 -12 221 -43 294 -71 68 -26 72 -26 165 -14 52 6
133 18 180 27 47 8 138 23 203 34 167 27 178 34 201 140 5 22 11 26 42 27 77
3 139 54 150 124 13 74 -78 108 -136 50 -26 -26 -36 -59 -52 -157 -4 -25 -44
-23 -104 6 -77 36 -224 229 -224 294 0 29 -55 75 -112 95 -82 28 -135 26 -202
-10 -63 -33 -92 -30 -113 11 -19 37 -15 77 17 169 16 47 30 96 30 109 0 13
-18 47 -39 75 -22 28 -54 82 -72 119 -34 72 -68 107 -104 107 -12 0 -44 -11
-71 -25z"/>
<path d="M6754 6146 c-17 -8 -64 -44 -103 -82 -79 -74 -136 -173 -166 -289
-19 -76 -19 -174 0 -200 37 -48 183 3 237 83 17 26 59 76 93 112 66 70 135
183 135 222 0 30 -50 108 -92 143 -33 28 -58 31 -104 11z"/>
<path d="M22506 5757 c-50 -16 -82 -56 -67 -85 13 -24 122 -112 168 -136 43
-22 60 -20 88 9 46 45 26 168 -32 198 -41 22 -112 28 -157 14z"/>
<path d="M12693 5745 c-65 -28 -68 -87 -8 -184 l36 -58 0 -639 0 -639 -30 -85
c-38 -107 -40 -162 -6 -195 13 -14 36 -25 52 -26 15 0 115 0 222 -1 176 0 196
2 220 20 40 30 40 86 -1 191 l-33 86 3 265 c2 146 8 299 13 340 8 54 8 108 -1
200 -11 109 -10 345 3 617 2 43 -2 56 -22 77 -14 14 -41 30 -60 36 -56 15
-350 12 -388 -5z"/>
<path d="M14580 5749 c-69 -28 -75 -65 -27 -165 l32 -69 0 -545 c0 -617 -9
-541 91 -700 36 -57 82 -111 140 -164 75 -69 99 -84 190 -122 131 -54 165 -61
188 -39 12 13 15 26 10 49 -14 68 -47 138 -88 188 -24 29 -48 64 -55 77 -21
38 -29 249 -32 776 l-3 490 33 63 c39 77 38 116 -2 146 -27 20 -43 21 -240 23
-126 1 -222 -2 -237 -8z"/>
<path d="M18183 5740 c-63 -28 -63 -61 3 -156 l46 -68 0 -600 c0 -331 0 -621
0 -646 1 -28 -13 -89 -36 -157 -21 -62 -36 -122 -34 -134 2 -12 14 -30 28 -41
23 -17 48 -19 254 -20 l229 -2 25 29 c22 26 24 35 19 85 -4 31 -21 98 -38 150
-31 93 -32 95 -19 175 9 58 11 226 9 615 l-3 535 37 69 c38 72 44 103 26 138
-22 41 -65 48 -291 48 -189 0 -218 -3 -255 -20z"/>
<path d="M19385 5754 c-11 -3 -30 -7 -42 -9 -31 -7 -53 -32 -53 -62 0 -14 26
-72 58 -131 49 -91 73 -122 177 -226 66 -66 134 -139 150 -162 29 -39 83 -102
225 -257 36 -40 83 -94 105 -122 21 -27 66 -80 100 -116 33 -37 98 -110 145
-164 47 -53 114 -129 150 -168 36 -40 85 -98 109 -129 24 -32 47 -58 51 -58 4
0 28 -29 54 -64 54 -74 91 -95 135 -77 15 7 33 23 40 37 13 30 4 472 -11 522
-6 21 -56 79 -142 165 -72 73 -146 153 -164 179 -18 26 -48 59 -67 74 -19 14
-45 43 -57 63 -12 20 -52 68 -89 106 -37 39 -87 93 -111 122 -110 131 -189
222 -253 292 -39 42 -81 91 -94 109 -43 62 -88 76 -251 78 -80 2 -154 1 -165
-2z"/>
<path d="M21473 5745 c-64 -27 -68 -74 -16 -171 l37 -69 -3 -545 c-2 -385 1
-565 9 -613 12 -64 11 -71 -20 -165 -18 -53 -34 -124 -37 -157 -5 -55 -3 -62
22 -85 l26 -25 222 3 c145 2 231 8 247 15 38 18 37 68 -1 184 l-32 98 2 255
c1 140 7 291 12 336 7 56 7 110 0 177 -14 127 -14 510 0 597 10 60 10 72 -7
107 -32 65 -62 73 -259 73 -122 -1 -179 -5 -202 -15z"/>
<path d="M15976 5729 c-35 -28 -33 -61 5 -93 59 -50 149 -24 149 44 0 38 -41
70 -90 70 -23 0 -48 -8 -64 -21z"/>
<path d="M20709 5735 c-53 -29 -42 -106 17 -121 64 -16 144 24 144 72 0 53
-99 83 -161 49z"/>
<path d="M13562 5728 c-39 -19 -39 -53 2 -135 81 -164 75 -405 -15 -570 -57
-106 -55 -138 16 -213 45 -46 65 -79 100 -163 l45 -106 0 -137 0 -138 -39 -65
c-41 -68 -61 -126 -61 -174 0 -34 40 -77 72 -77 38 0 213 59 244 83 49 37 130
130 153 174 50 100 63 232 32 332 -39 127 -126 224 -231 259 -80 27 -100 45
-100 90 0 32 13 48 128 164 70 70 133 142 141 160 7 18 13 67 13 109 -1 92
-28 172 -74 216 -76 71 -196 166 -233 184 -45 21 -155 25 -193 7z"/>
<path d="M24203 5669 c-27 -10 -37 -40 -28 -94 20 -135 135 -155 135 -24 0 77
-55 138 -107 118z"/>
<path d="M25661 5628 c-12 -32 -2 -66 27 -89 39 -30 66 -22 70 22 6 67 -76
124 -97 67z"/>
<path d="M17543 5633 c-22 -8 -14 -43 16 -74 60 -60 100 -15 45 50 -25 30 -36
35 -61 24z"/>
<path d="M23397 5619 c-27 -14 -54 -44 -91 -102 -97 -149 -101 -159 -101 -272
0 -84 4 -107 23 -145 35 -70 225 -259 307 -305 38 -21 87 -55 109 -75 43 -39
96 -69 156 -89 19 -6 67 -36 105 -67 39 -31 88 -65 110 -76 71 -37 102 -67
129 -127 30 -67 33 -99 21 -222 -7 -83 -7 -87 14 -99 51 -27 89 1 193 143 62
83 79 132 85 243 7 108 -2 142 -64 239 -54 84 -94 128 -148 163 -22 14 -60 43
-85 64 -25 22 -80 54 -122 73 -43 18 -100 51 -127 74 -27 23 -79 55 -115 71
-50 23 -88 52 -160 123 -112 111 -119 127 -110 272 6 87 4 103 -10 118 -23 22
-72 21 -119 -4z"/>
<path d="M16748 5616 c-68 -24 -89 -45 -125 -124 -19 -43 -48 -102 -64 -134
-16 -31 -32 -76 -35 -100 -6 -45 1 -62 84 -208 41 -72 208 -228 288 -268 32
-17 73 -45 89 -62 17 -19 74 -53 131 -80 56 -26 119 -64 140 -83 22 -19 59
-45 84 -57 75 -38 96 -57 146 -133 62 -93 70 -153 30 -221 -34 -58 -35 -103
-2 -112 30 -7 44 1 144 76 89 67 106 95 122 208 30 210 -16 371 -130 456 -30
23 -87 68 -127 102 -47 40 -96 70 -142 88 -39 15 -92 46 -118 67 -27 22 -87
60 -135 85 -73 38 -100 60 -166 132 -44 48 -85 98 -93 112 -10 18 -13 59 -11
148 l3 122 -38 0 c-21 -1 -55 -7 -75 -14z"/>
<path d="M24876 5615 c-22 -7 -47 -22 -57 -32 -26 -28 -139 -252 -149 -299
-21 -94 32 -193 193 -360 68 -71 116 -111 160 -134 34 -18 82 -52 107 -74 26
-25 75 -54 118 -71 41 -17 103 -54 140 -83 37 -30 93 -67 124 -83 31 -16 68
-43 82 -61 27 -37 86 -156 86 -176 0 -7 -11 -39 -25 -72 -40 -95 -31 -140 27
-140 21 0 51 22 123 87 115 104 125 128 125 294 0 212 -27 265 -214 421 -71
59 -146 113 -165 119 -58 19 -113 49 -161 89 -25 21 -79 54 -120 74 -60 30
-93 56 -168 134 -107 112 -117 134 -106 252 9 111 3 130 -44 130 -20 -1 -55
-7 -76 -15z"/>
<path d="M2819 5254 c-58 -17 -105 -67 -149 -157 l-32 -66 31 -66 c17 -35 39
-97 48 -137 18 -82 33 -117 73 -168 16 -20 47 -76 69 -125 24 -50 63 -114 90
-145 27 -31 63 -78 80 -105 41 -64 204 -233 266 -275 28 -18 75 -56 105 -85
30 -28 82 -69 115 -90 33 -21 87 -61 120 -90 33 -28 76 -62 95 -75 19 -13 60
-47 90 -76 30 -29 74 -62 98 -75 24 -12 60 -41 80 -65 20 -24 63 -62 97 -83
33 -22 75 -57 92 -79 18 -22 59 -56 90 -75 33 -21 74 -57 95 -86 38 -51 98
-97 156 -120 25 -11 38 -11 62 -1 29 12 158 162 199 231 26 45 57 181 71 318
10 98 13 108 55 175 25 39 52 93 61 121 24 81 29 218 10 309 -11 54 -16 130
-16 245 0 216 -22 312 -86 381 -12 14 -41 61 -63 106 -51 104 -80 129 -163
138 -34 4 -68 12 -75 18 -8 6 -13 34 -13 70 0 113 -40 148 -168 148 -110 0
-163 -18 -226 -78 -55 -52 -83 -64 -186 -82 -36 -6 -108 -23 -160 -37 -114
-31 -203 -28 -321 11 -53 17 -110 27 -190 31 -151 9 -210 26 -252 72 -79 88
-71 83 -139 82 -35 0 -84 -7 -109 -15z m326 -551 c24 -23 33 -54 41 -128 6
-58 5 -65 -11 -65 -9 0 -34 17 -55 38 -29 28 -40 49 -45 84 -11 75 27 114 70
71z m145 -241 c14 -11 39 -43 55 -72 23 -40 42 -60 80 -80 33 -18 60 -42 80
-73 21 -33 44 -53 75 -67 83 -37 93 -45 125 -90 26 -37 44 -50 101 -73 78 -31
114 -65 114 -106 0 -42 -22 -55 -77 -47 -60 8 -101 32 -138 82 -20 27 -54 53
-103 78 -49 26 -82 51 -103 80 -16 22 -53 59 -82 80 -60 45 -163 160 -190 211
-11 19 -21 53 -24 75 l-6 39 34 -9 c19 -6 45 -18 59 -28z"/>
<path d="M22393 4941 c-54 -34 -56 -83 -4 -114 60 -35 111 -11 111 54 0 67
-50 95 -107 60z"/>
<path d="M16500 4238 c-24 -40 -27 -123 -6 -173 27 -63 126 -86 194 -45 57 35
40 91 -61 195 -65 67 -97 73 -127 23z"/>
<path d="M24687 4249 c-27 -16 -57 -87 -57 -136 0 -33 7 -50 29 -75 27 -31 34
-33 94 -33 77 0 107 20 107 69 0 61 -94 187 -138 186 -9 0 -25 -5 -35 -11z"/>
<path d="M23183 4215 c-48 -34 -48 -140 1 -182 33 -28 103 -39 150 -23 59 19
71 62 36 129 -35 69 -139 111 -187 76z"/>
<path d="M22745 4176 c-34 -15 -159 -144 -181 -189 -32 -60 9 -105 82 -91 48
9 153 80 181 123 32 48 31 114 -2 146 -27 28 -38 30 -80 11z"/>
<path d="M19345 4025 c-44 -44 -22 -105 38 -105 55 0 84 61 51 108 -20 29 -59
28 -89 -3z"/>
<path d="M3085 3785 c-28 -7 -81 -25 -120 -39 -38 -15 -105 -36 -149 -47 -43
-11 -96 -29 -116 -39 -51 -26 -227 -221 -256 -284 -33 -74 -48 -182 -40 -311
7 -138 24 -203 81 -313 25 -48 57 -130 71 -182 14 -52 44 -153 67 -223 40
-127 40 -128 29 -204 -19 -123 -92 -237 -201 -317 -57 -42 -98 -53 -141 -38
-36 13 -131 94 -245 208 -86 87 -121 106 -274 145 -83 21 -138 17 -177 -14
-84 -66 -32 -133 154 -198 89 -30 95 -35 155 -103 141 -159 142 -182 9 -227
-33 -11 -66 -27 -72 -34 -20 -24 -7 -68 27 -91 36 -24 242 -84 288 -84 42 0
199 46 254 75 25 13 70 44 100 69 30 25 66 50 80 55 14 5 80 31 145 56 104 41
133 48 230 55 127 10 151 17 187 56 45 49 51 73 60 213 4 75 13 153 19 175 21
72 128 281 166 324 45 53 277 209 337 227 23 7 112 20 197 29 126 14 170 15
235 6 170 -23 204 -24 224 -6 23 21 33 58 23 84 -14 39 -147 175 -208 213 -34
22 -74 57 -89 79 -15 22 -51 54 -79 71 -28 17 -81 60 -118 95 -36 35 -71 64
-77 64 -6 0 -46 33 -89 73 -42 40 -99 86 -127 101 -27 16 -77 54 -110 86 -33
31 -88 74 -122 94 -35 21 -68 45 -75 55 -7 10 -29 28 -48 40 -41 25 -126 27
-205 6z"/>
<path d="M5102 3750 c-41 -41 -58 -102 -72 -250 -13 -144 -29 -215 -72 -318
-25 -61 -39 -79 -87 -116 -42 -32 -72 -70 -120 -147 -76 -122 -86 -169 -53
-259 69 -189 99 -261 127 -305 54 -82 240 -258 323 -305 40 -22 93 -56 118
-75 52 -40 84 -50 219 -71 199 -30 270 -46 384 -91 153 -59 183 -77 215 -126
35 -55 60 -140 52 -182 -12 -64 -75 -174 -114 -200 -91 -60 -260 -73 -502 -41
-201 28 -289 19 -342 -34 -29 -30 -37 -75 -18 -110 13 -23 61 -40 119 -40 58
0 93 -18 105 -52 8 -22 1 -41 -49 -127 -67 -119 -80 -176 -46 -210 38 -38 99
-19 144 46 37 53 70 70 155 78 l73 8 68 -72 c83 -87 106 -92 160 -30 128 146
199 212 264 246 37 20 77 49 88 65 12 16 46 47 76 69 30 23 69 61 86 86 18 25
55 75 83 110 64 81 89 157 89 268 0 102 -22 146 -103 209 -33 24 -66 56 -75
70 -10 14 -44 44 -77 66 -66 45 -96 85 -128 173 -29 77 -28 105 12 222 36 107
86 340 86 403 0 60 -36 217 -63 274 -14 29 -51 84 -83 122 -33 38 -81 103
-109 145 -65 100 -218 224 -352 288 -51 23 -115 56 -141 73 -27 16 -77 37
-113 46 -79 20 -102 32 -164 83 -65 53 -118 57 -163 11z m-33 -907 c6 -21 15
-72 21 -113 6 -41 20 -93 31 -116 19 -40 103 -126 223 -229 55 -47 59 -53 63
-101 5 -47 3 -54 -20 -68 -23 -16 -29 -16 -83 3 -77 28 -124 60 -170 118 -21
26 -59 71 -85 100 -53 59 -78 132 -86 253 -6 81 -1 97 45 158 32 42 49 41 61
-5z"/>
<path d="M14470 2873 c-40 -13 -60 -28 -70 -54 -15 -36 -5 -68 44 -139 20 -29
36 -57 36 -64 1 -6 2 -276 4 -601 2 -324 4 -605 5 -623 0 -19 -13 -66 -31
-105 -49 -111 -51 -214 -5 -238 28 -16 458 -15 487 1 50 27 50 80 -1 201 l-31
74 0 658 1 657 45 61 c32 43 46 70 46 92 0 42 -9 53 -53 72 -29 12 -79 15
-249 14 -117 0 -220 -3 -228 -6z"/>
<path d="M16345 2864 c-16 -8 -33 -21 -37 -27 -17 -27 -7 -89 23 -150 l32 -62
1 -535 1 -535 62 -116 c57 -104 72 -124 159 -204 80 -73 110 -94 185 -126 110
-48 166 -61 192 -47 44 23 -3 169 -86 271 -33 41 -47 68 -51 99 -19 144 -26
346 -27 749 l-1 456 43 82 c40 78 42 85 28 109 -24 43 -66 50 -289 51 -167 1
-211 -2 -235 -15z"/>
<path d="M18530 2869 c-82 -25 -90 -67 -27 -159 l42 -63 2 -546 c2 -300 4
-595 5 -656 1 -100 -2 -118 -30 -199 -36 -100 -41 -166 -15 -187 20 -17 409
-31 461 -17 73 20 84 107 31 259 -32 91 -32 92 -19 180 8 58 11 132 7 212 -4
67 -3 161 2 208 4 47 5 223 1 390 -5 201 -4 330 3 380 14 102 1 149 -51 181
-34 21 -48 23 -207 25 -95 1 -186 -3 -205 -8z"/>
<path d="M17756 2849 c-33 -26 -34 -62 -1 -94 33 -34 102 -35 133 -2 47 50 9
117 -68 117 -23 0 -48 -8 -64 -21z"/>
<path d="M19406 2855 c-21 -7 -43 -20 -47 -27 -18 -28 -8 -81 31 -156 31 -61
42 -96 51 -167 15 -115 9 -155 -47 -290 -82 -198 -79 -188 -64 -224 7 -18 36
-50 65 -71 65 -48 80 -71 104 -162 15 -54 21 -113 23 -228 l3 -155 -43 -89
c-53 -110 -61 -153 -35 -185 24 -29 55 -30 157 -5 119 28 153 51 228 151 28
37 63 83 78 103 33 42 46 83 55 170 7 81 -11 145 -58 203 -19 23 -49 65 -66
94 -36 58 -70 82 -151 108 -68 21 -104 57 -95 94 8 32 40 66 132 142 117 97
161 216 134 361 -21 111 -52 161 -134 215 -40 26 -91 62 -114 79 -23 18 -65
37 -93 43 -63 14 -66 13 -114 -4z"/>
<path d="M13017 2835 c-15 -8 -47 -29 -70 -48 -23 -19 -66 -47 -95 -63 -30
-15 -63 -42 -75 -58 -12 -17 -47 -59 -79 -93 -31 -33 -69 -85 -83 -115 -15
-29 -37 -66 -50 -83 -54 -73 -68 -120 -85 -289 -13 -127 0 -301 28 -393 18
-57 126 -238 200 -336 21 -27 60 -66 88 -87 28 -21 77 -61 108 -89 65 -56 124
-76 181 -60 70 20 59 92 -26 183 -89 96 -118 192 -140 466 -13 171 -7 379 16
565 18 144 44 201 180 389 38 52 44 86 19 110 -19 20 -80 21 -117 1z"/>
<path d="M13838 2824 c-50 -27 -31 -75 74 -186 74 -79 138 -56 138 49 0 112
-118 189 -212 137z"/>
<path d="M13965 1368 c-39 -23 -155 -119 -165 -138 -16 -30 -12 -65 11 -86 17
-15 36 -19 94 -19 68 0 76 2 105 30 53 51 63 157 18 204 -21 24 -34 25 -63 9z"/>
<path d="M15704 1280 c-23 -11 -55 -40 -72 -64 -17 -24 -47 -62 -67 -86 -56
-67 -44 -110 29 -110 43 0 124 33 175 71 54 40 78 137 44 177 -27 32 -62 35
-109 12z"/>
</g>
</svg>
