<?xml version="1.0" standalone="no"?>
<!DOCTYPE svg PUBLIC "-//W3C//DTD SVG 20010904//EN"
 "http://www.w3.org/TR/2001/REC-SVG-20010904/DTD/svg10.dtd">
<svg version="1.0" xmlns="http://www.w3.org/2000/svg"
 width="1520.000000pt" height="912.000000pt" viewBox="0 0 1520.000000 912.000000"
 preserveAspectRatio="xMidYMid meet">
<metadata>
Created by potrace 1.16, written by Peter Selinger 2001-2019
</metadata>
<g transform="translate(0.000000,912.000000) scale(0.100000,-0.100000)"
fill="#f4efe5" stroke="none">
<path d="M1020 8313 c-8 -3 -25 -15 -37 -26 -36 -33 -31 -82 18 -157 l41 -64
3 -600 c2 -331 4 -614 5 -631 1 -16 -13 -66 -31 -110 -20 -49 -34 -104 -37
-141 -4 -54 -1 -64 19 -83 12 -11 34 -21 48 -22 117 -4 423 0 442 6 60 19 63
71 12 198 l-38 92 5 215 c6 269 6 366 0 765 l-5 321 48 63 c33 44 47 72 47 94
0 42 -9 53 -53 72 -29 12 -79 15 -254 14 -120 0 -225 -3 -233 -6z"/>
<path d="M2174 8301 c-67 -31 -68 -69 -1 -154 54 -69 55 -79 46 -477 -5 -214
-4 -469 1 -617 l10 -253 -41 -112 c-44 -126 -46 -162 -9 -189 22 -16 51 -19
246 -20 194 -2 225 0 248 14 48 32 47 91 -6 244 l-32 92 13 105 c7 58 10 109
7 114 -3 5 -6 235 -6 511 l-2 503 37 59 c41 67 53 116 35 148 -23 44 -64 51
-292 51 -186 0 -218 -3 -254 -19z"/>
<path d="M4140 8176 c-50 -28 -97 -112 -135 -241 -43 -151 -35 -200 60 -340
37 -54 66 -114 90 -184 20 -57 57 -145 82 -194 24 -50 62 -135 83 -189 22 -55
55 -122 76 -150 52 -73 63 -106 74 -218 11 -113 26 -152 68 -169 19 -8 101
-13 234 -14 237 -2 243 0 235 68 -9 79 -46 152 -112 225 -55 59 -67 80 -85
142 -35 121 -49 154 -96 225 -27 41 -55 102 -71 153 -28 94 -51 143 -95 207
-16 23 -47 95 -69 159 -22 64 -53 135 -68 158 -48 69 -70 122 -91 211 -23 98
-42 140 -69 155 -27 14 -81 12 -111 -4z"/>
<path d="M3374 6675 c-51 -51 -82 -157 -55 -189 31 -37 118 -27 160 18 24 26
37 89 27 131 -16 65 -86 86 -132 40z"/>
<path d="M10826 5437 c-50 -16 -82 -56 -67 -85 13 -24 122 -112 168 -136 43
-22 60 -20 88 9 46 45 26 168 -32 198 -41 22 -112 28 -157 14z"/>
<path d="M1013 5425 c-65 -28 -68 -87 -8 -184 l36 -58 0 -639 0 -639 -30 -85
c-38 -107 -40 -162 -6 -195 13 -14 36 -25 52 -26 15 0 115 0 222 -1 176 0 196
2 220 20 40 30 40 86 -1 191 l-33 86 3 265 c2 146 8 299 13 340 8 54 8 108 -1
200 -11 109 -10 345 3 617 2 43 -2 56 -22 77 -14 14 -41 30 -60 36 -56 15
-350 12 -388 -5z"/>
<path d="M2900 5429 c-69 -28 -75 -65 -27 -165 l32 -69 0 -545 c0 -617 -9
-541 91 -700 36 -57 82 -111 140 -164 75 -69 99 -84 190 -122 131 -54 165 -61
188 -39 12 13 15 26 10 49 -14 68 -47 138 -88 188 -24 29 -48 64 -55 77 -21
38 -29 249 -32 776 l-3 490 33 63 c39 77 38 116 -2 146 -27 20 -43 21 -240 23
-126 1 -222 -2 -237 -8z"/>
<path d="M6503 5420 c-63 -28 -63 -61 3 -156 l46 -68 0 -600 c0 -331 0 -621 0
-646 1 -28 -13 -89 -36 -157 -21 -62 -36 -122 -34 -134 2 -12 14 -30 28 -41
23 -17 48 -19 254 -20 l229 -2 25 29 c22 26 24 35 19 85 -4 31 -21 98 -38 150
-31 93 -32 95 -19 175 9 58 11 226 9 615 l-3 535 37 69 c38 72 44 103 26 138
-22 41 -65 48 -291 48 -189 0 -218 -3 -255 -20z"/>
<path d="M7705 5434 c-11 -3 -30 -7 -42 -9 -31 -7 -53 -32 -53 -62 0 -14 26
-72 58 -131 49 -91 73 -122 177 -226 66 -66 134 -139 150 -162 29 -39 83 -102
225 -257 36 -40 83 -94 105 -122 21 -27 66 -80 100 -116 33 -37 98 -110 145
-164 47 -53 114 -129 150 -168 36 -40 85 -98 109 -129 24 -32 47 -58 51 -58 4
0 28 -29 54 -64 54 -74 91 -95 135 -77 15 7 33 23 40 37 13 30 4 472 -11 522
-6 21 -56 79 -142 165 -72 73 -146 153 -164 179 -18 26 -48 59 -67 74 -19 14
-45 43 -57 63 -12 20 -52 68 -89 106 -37 39 -87 93 -111 122 -110 131 -189
222 -253 292 -39 42 -81 91 -94 109 -43 62 -88 76 -251 78 -80 2 -154 1 -165
-2z"/>
<path d="M9793 5425 c-64 -27 -68 -74 -16 -171 l37 -69 -3 -545 c-2 -385 1
-565 9 -613 12 -64 11 -71 -20 -165 -18 -53 -34 -124 -37 -157 -5 -55 -3 -62
22 -85 l26 -25 222 3 c145 2 231 8 247 15 38 18 37 68 -1 184 l-32 98 2 255
c1 140 7 291 12 336 7 56 7 110 0 177 -14 127 -14 510 0 597 10 60 10 72 -7
107 -32 65 -62 73 -259 73 -122 -1 -179 -5 -202 -15z"/>
<path d="M4296 5409 c-35 -28 -33 -61 5 -93 59 -50 149 -24 149 44 0 38 -41
70 -90 70 -23 0 -48 -8 -64 -21z"/>
<path d="M9029 5415 c-53 -29 -42 -106 17 -121 64 -16 144 24 144 72 0 53 -99
83 -161 49z"/>
<path d="M1882 5408 c-39 -19 -39 -53 2 -135 81 -164 75 -405 -15 -570 -57
-106 -55 -138 16 -213 45 -46 65 -79 100 -163 l45 -106 0 -137 0 -138 -39 -65
c-41 -68 -61 -126 -61 -174 0 -34 40 -77 72 -77 38 0 213 59 244 83 49 37 130
130 153 174 50 100 63 232 32 332 -39 127 -126 224 -231 259 -80 27 -100 45
-100 90 0 32 13 48 128 164 70 70 133 142 141 160 7 18 13 67 13 109 -1 92
-28 172 -74 216 -76 71 -196 166 -233 184 -45 21 -155 25 -193 7z"/>
<path d="M12523 5349 c-27 -10 -37 -40 -28 -94 20 -135 135 -155 135 -24 0 77
-55 138 -107 118z"/>
<path d="M13981 5308 c-12 -32 -2 -66 27 -89 39 -30 66 -22 70 22 6 67 -76
124 -97 67z"/>
<path d="M5863 5313 c-22 -8 -14 -43 16 -74 60 -60 100 -15 45 50 -25 30 -36
35 -61 24z"/>
<path d="M11717 5299 c-27 -14 -54 -44 -91 -102 -97 -149 -101 -159 -101 -272
0 -84 4 -107 23 -145 35 -70 225 -259 307 -305 38 -21 87 -55 109 -75 43 -39
96 -69 156 -89 19 -6 67 -36 105 -67 39 -31 88 -65 110 -76 71 -37 102 -67
129 -127 30 -67 33 -99 21 -222 -7 -83 -7 -87 14 -99 51 -27 89 1 193 143 62
83 79 132 85 243 7 108 -2 142 -64 239 -54 84 -94 128 -148 163 -22 14 -60 43
-85 64 -25 22 -80 54 -122 73 -43 18 -100 51 -127 74 -27 23 -79 55 -115 71
-50 23 -88 52 -160 123 -112 111 -119 127 -110 272 6 87 4 103 -10 118 -23 22
-72 21 -119 -4z"/>
<path d="M5068 5296 c-68 -24 -89 -45 -125 -124 -19 -43 -48 -102 -64 -134
-16 -31 -32 -76 -35 -100 -6 -45 1 -62 84 -208 41 -72 208 -228 288 -268 32
-17 73 -45 89 -62 17 -19 74 -53 131 -80 56 -26 119 -64 140 -83 22 -19 59
-45 84 -57 75 -38 96 -57 146 -133 62 -93 70 -153 30 -221 -34 -58 -35 -103
-2 -112 30 -7 44 1 144 76 89 67 106 95 122 208 30 210 -16 371 -130 456 -30
23 -87 68 -127 102 -47 40 -96 70 -142 88 -39 15 -92 46 -118 67 -27 22 -87
60 -135 85 -73 38 -100 60 -166 132 -44 48 -85 98 -93 112 -10 18 -13 59 -11
148 l3 122 -38 0 c-21 -1 -55 -7 -75 -14z"/>
<path d="M13196 5295 c-22 -7 -47 -22 -57 -32 -26 -28 -139 -252 -149 -299
-21 -94 32 -193 193 -360 68 -71 116 -111 160 -134 34 -18 82 -52 107 -74 26
-25 75 -54 118 -71 41 -17 103 -54 140 -83 37 -30 93 -67 124 -83 31 -16 68
-43 82 -61 27 -37 86 -156 86 -176 0 -7 -11 -39 -25 -72 -40 -95 -31 -140 27
-140 21 0 51 22 123 87 115 104 125 128 125 294 0 212 -27 265 -214 421 -71
59 -146 113 -165 119 -58 19 -113 49 -161 89 -25 21 -79 54 -120 74 -60 30
-93 56 -168 134 -107 112 -117 134 -106 252 9 111 3 130 -44 130 -20 -1 -55
-7 -76 -15z"/>
<path d="M10713 4621 c-54 -34 -56 -83 -4 -114 60 -35 111 -11 111 54 0 67
-50 95 -107 60z"/>
<path d="M4820 3918 c-24 -40 -27 -123 -6 -173 27 -63 126 -86 194 -45 57 35
40 91 -61 195 -65 67 -97 73 -127 23z"/>
<path d="M13007 3929 c-27 -16 -57 -87 -57 -136 0 -33 7 -50 29 -75 27 -31 34
-33 94 -33 77 0 107 20 107 69 0 61 -94 187 -138 186 -9 0 -25 -5 -35 -11z"/>
<path d="M11503 3895 c-48 -34 -48 -140 1 -182 33 -28 103 -39 150 -23 59 19
71 62 36 129 -35 69 -139 111 -187 76z"/>
<path d="M11065 3856 c-34 -15 -159 -144 -181 -189 -32 -60 9 -105 82 -91 48
9 153 80 181 123 32 48 31 114 -2 146 -27 28 -38 30 -80 11z"/>
<path d="M7665 3705 c-44 -44 -22 -105 38 -105 55 0 84 61 51 108 -20 29 -59
28 -89 -3z"/>
<path d="M2790 2553 c-40 -13 -60 -28 -70 -54 -15 -36 -5 -68 44 -139 20 -29
36 -57 36 -64 1 -6 2 -276 4 -601 2 -324 4 -605 5 -623 0 -19 -13 -66 -31
-105 -49 -111 -51 -214 -5 -238 28 -16 458 -15 487 1 50 27 50 80 -1 201 l-31
74 0 658 1 657 45 61 c32 43 46 70 46 92 0 42 -9 53 -53 72 -29 12 -79 15
-249 14 -117 0 -220 -3 -228 -6z"/>
<path d="M4665 2544 c-16 -8 -33 -21 -37 -27 -17 -27 -7 -89 23 -150 l32 -62
1 -535 1 -535 62 -116 c57 -104 72 -124 159 -204 80 -73 110 -94 185 -126 110
-48 166 -61 192 -47 44 23 -3 169 -86 271 -33 41 -47 68 -51 99 -19 144 -26
346 -27 749 l-1 456 43 82 c40 78 42 85 28 109 -24 43 -66 50 -289 51 -167 1
-211 -2 -235 -15z"/>
<path d="M6850 2549 c-82 -25 -90 -67 -27 -159 l42 -63 2 -546 c2 -300 4 -595
5 -656 1 -100 -2 -118 -30 -199 -36 -100 -41 -166 -15 -187 20 -17 409 -31
461 -17 73 20 84 107 31 259 -32 91 -32 92 -19 180 8 58 11 132 7 212 -4 67
-3 161 2 208 4 47 5 223 1 390 -5 201 -4 330 3 380 14 102 1 149 -51 181 -34
21 -48 23 -207 25 -95 1 -186 -3 -205 -8z"/>
<path d="M6076 2529 c-33 -26 -34 -62 -1 -94 33 -34 102 -35 133 -2 47 50 9
117 -68 117 -23 0 -48 -8 -64 -21z"/>
<path d="M7726 2535 c-21 -7 -43 -20 -47 -27 -18 -28 -8 -81 31 -156 31 -61
42 -96 51 -167 15 -115 9 -155 -47 -290 -82 -198 -79 -188 -64 -224 7 -18 36
-50 65 -71 65 -48 80 -71 104 -162 15 -54 21 -113 23 -228 l3 -155 -43 -89
c-53 -110 -61 -153 -35 -185 24 -29 55 -30 157 -5 119 28 153 51 228 151 28
37 63 83 78 103 33 42 46 83 55 170 7 81 -11 145 -58 203 -19 23 -49 65 -66
94 -36 58 -70 82 -151 108 -68 21 -104 57 -95 94 8 32 40 66 132 142 117 97
161 216 134 361 -21 111 -52 161 -134 215 -40 26 -91 62 -114 79 -23 18 -65
37 -93 43 -63 14 -66 13 -114 -4z"/>
<path d="M1337 2515 c-15 -8 -47 -29 -70 -48 -23 -19 -66 -47 -95 -63 -30 -15
-63 -42 -75 -58 -12 -17 -47 -59 -79 -93 -31 -33 -69 -85 -83 -115 -15 -29
-37 -66 -50 -83 -54 -73 -68 -120 -85 -289 -13 -127 0 -301 28 -393 18 -57
126 -238 200 -336 21 -27 60 -66 88 -87 28 -21 77 -61 108 -89 65 -56 124 -76
181 -60 70 20 59 92 -26 183 -89 96 -118 192 -140 466 -13 171 -7 379 16 565
18 144 44 201 180 389 38 52 44 86 19 110 -19 20 -80 21 -117 1z"/>
<path d="M2158 2504 c-50 -27 -31 -75 74 -186 74 -79 138 -56 138 49 0 112
-118 189 -212 137z"/>
<path d="M2285 1048 c-39 -23 -155 -119 -165 -138 -16 -30 -12 -65 11 -86 17
-15 36 -19 94 -19 68 0 76 2 105 30 53 51 63 157 18 204 -21 24 -34 25 -63 9z"/>
<path d="M4024 960 c-23 -11 -55 -40 -72 -64 -17 -24 -47 -62 -67 -86 -56 -67
-44 -110 29 -110 43 0 124 33 175 71 54 40 78 137 44 177 -27 32 -62 35 -109
12z"/>
</g>
</svg>
